<svg width="176" height="36" viewBox="0 0 176 36" fill="none" xmlns="http://www.w3.org/2000/svg">
<rect x="0.792969" y="1.06494" width="173.861" height="33.4812" rx="16.7406" fill="#131313" stroke="url(#paint0_linear_85_830)"/>
<path d="M51.2279 19.6918H48.8679V21.5638H47.3079V19.6918H44.9399V18.1478H47.3079V16.2678H48.8679V18.1478H51.2279V19.6918ZM58.8687 11.3078V23.1238H56.4047V13.6278C56.3354 13.6811 56.1861 13.7504 55.9567 13.8358C55.7327 13.9158 55.4634 13.9931 55.1487 14.0678C54.8341 14.1424 54.5087 14.1931 54.1727 14.2198V12.2678C54.5087 12.2251 54.8367 12.1531 55.1567 12.0518C55.4767 11.9451 55.7514 11.8251 55.9807 11.6918C56.2154 11.5584 56.3701 11.4304 56.4447 11.3078H58.8687ZM65.2227 23.3158C64.4707 23.3158 63.8307 23.1531 63.3027 22.8278C62.7801 22.5024 62.3534 22.0598 62.0227 21.4998C61.6974 20.9344 61.4601 20.2864 61.3107 19.5558C61.1614 18.8251 61.0867 18.0571 61.0867 17.2518C61.0867 16.4464 61.1614 15.6784 61.3107 14.9478C61.4601 14.2118 61.6974 13.5584 62.0227 12.9878C62.3534 12.4171 62.7801 11.9691 63.3027 11.6438C63.8307 11.3131 64.4707 11.1478 65.2227 11.1478C65.9747 11.1478 66.6121 11.3131 67.1347 11.6438C67.6627 11.9691 68.0894 12.4171 68.4147 12.9878C68.7454 13.5584 68.9854 14.2118 69.1347 14.9478C69.2841 15.6784 69.3587 16.4464 69.3587 17.2518C69.3587 18.0571 69.2841 18.8251 69.1347 19.5558C68.9854 20.2864 68.7454 20.9344 68.4147 21.4998C68.0894 22.0598 67.6627 22.5024 67.1347 22.8278C66.6121 23.1531 65.9747 23.3158 65.2227 23.3158ZM65.2227 21.3878C65.5801 21.3878 65.8787 21.2518 66.1187 20.9798C66.3641 20.7024 66.5481 20.2598 66.6707 19.6518C66.7934 19.0438 66.8547 18.2438 66.8547 17.2518C66.8547 16.2544 66.7934 15.4544 66.6707 14.8518C66.5481 14.2438 66.3641 13.8011 66.1187 13.5238C65.8787 13.2464 65.5801 13.1078 65.2227 13.1078C64.8707 13.1078 64.5721 13.2464 64.3267 13.5238C64.0814 13.8011 63.8974 14.2438 63.7747 14.8518C63.6521 15.4544 63.5907 16.2544 63.5907 17.2518C63.5907 18.2491 63.6521 19.0518 63.7747 19.6598C63.8974 20.2624 64.0814 20.7024 64.3267 20.9798C64.5721 21.2518 64.8707 21.3878 65.2227 21.3878ZM74.7696 23.3158C74.0176 23.3158 73.3776 23.1531 72.8496 22.8278C72.327 22.5024 71.9003 22.0598 71.5696 21.4998C71.2443 20.9344 71.007 20.2864 70.8576 19.5558C70.7083 18.8251 70.6336 18.0571 70.6336 17.2518C70.6336 16.4464 70.7083 15.6784 70.8576 14.9478C71.007 14.2118 71.2443 13.5584 71.5696 12.9878C71.9003 12.4171 72.327 11.9691 72.8496 11.6438C73.3776 11.3131 74.0176 11.1478 74.7696 11.1478C75.5216 11.1478 76.159 11.3131 76.6816 11.6438C77.2096 11.9691 77.6363 12.4171 77.9616 12.9878C78.2923 13.5584 78.5323 14.2118 78.6816 14.9478C78.831 15.6784 78.9056 16.4464 78.9056 17.2518C78.9056 18.0571 78.831 18.8251 78.6816 19.5558C78.5323 20.2864 78.2923 20.9344 77.9616 21.4998C77.6363 22.0598 77.2096 22.5024 76.6816 22.8278C76.159 23.1531 75.5216 23.3158 74.7696 23.3158ZM74.7696 21.3878C75.127 21.3878 75.4256 21.2518 75.6656 20.9798C75.911 20.7024 76.095 20.2598 76.2176 19.6518C76.3403 19.0438 76.4016 18.2438 76.4016 17.2518C76.4016 16.2544 76.3403 15.4544 76.2176 14.8518C76.095 14.2438 75.911 13.8011 75.6656 13.5238C75.4256 13.2464 75.127 13.1078 74.7696 13.1078C74.4176 13.1078 74.119 13.2464 73.8736 13.5238C73.6283 13.8011 73.4443 14.2438 73.3216 14.8518C73.199 15.4544 73.1376 16.2544 73.1376 17.2518C73.1376 18.2491 73.199 19.0518 73.3216 19.6598C73.4443 20.2624 73.6283 20.7024 73.8736 20.9798C74.119 21.2518 74.4176 21.3878 74.7696 21.3878ZM81.9405 23.3638C81.5725 23.3638 81.2605 23.2358 81.0045 22.9798C80.7485 22.7238 80.6205 22.4118 80.6205 22.0438C80.6205 21.6811 80.7485 21.3718 81.0045 21.1158C81.2605 20.8598 81.5725 20.7318 81.9405 20.7318C82.3032 20.7318 82.6125 20.8598 82.8685 21.1158C83.1245 21.3718 83.2525 21.6811 83.2525 22.0438C83.2525 22.4118 83.1245 22.7238 82.8685 22.9798C82.6125 23.2358 82.3032 23.3638 81.9405 23.3638ZM88.9727 23.3158C88.2207 23.3158 87.5807 23.1531 87.0527 22.8278C86.5301 22.5024 86.1034 22.0598 85.7727 21.4998C85.4474 20.9344 85.2101 20.2864 85.0607 19.5558C84.9114 18.8251 84.8367 18.0571 84.8367 17.2518C84.8367 16.4464 84.9114 15.6784 85.0607 14.9478C85.2101 14.2118 85.4474 13.5584 85.7727 12.9878C86.1034 12.4171 86.5301 11.9691 87.0527 11.6438C87.5807 11.3131 88.2207 11.1478 88.9727 11.1478C89.7247 11.1478 90.3621 11.3131 90.8847 11.6438C91.4127 11.9691 91.8394 12.4171 92.1647 12.9878C92.4954 13.5584 92.7354 14.2118 92.8847 14.9478C93.0341 15.6784 93.1087 16.4464 93.1087 17.2518C93.1087 18.0571 93.0341 18.8251 92.8847 19.5558C92.7354 20.2864 92.4954 20.9344 92.1647 21.4998C91.8394 22.0598 91.4127 22.5024 90.8847 22.8278C90.3621 23.1531 89.7247 23.3158 88.9727 23.3158ZM88.9727 21.3878C89.3301 21.3878 89.6287 21.2518 89.8687 20.9798C90.1141 20.7024 90.2981 20.2598 90.4207 19.6518C90.5434 19.0438 90.6047 18.2438 90.6047 17.2518C90.6047 16.2544 90.5434 15.4544 90.4207 14.8518C90.2981 14.2438 90.1141 13.8011 89.8687 13.5238C89.6287 13.2464 89.3301 13.1078 88.9727 13.1078C88.6207 13.1078 88.3221 13.2464 88.0767 13.5238C87.8314 13.8011 87.6474 14.2438 87.5247 14.8518C87.4021 15.4544 87.3407 16.2544 87.3407 17.2518C87.3407 18.2491 87.4021 19.0518 87.5247 19.6598C87.6474 20.2624 87.8314 20.7024 88.0767 20.9798C88.3221 21.2518 88.6207 21.3878 88.9727 21.3878ZM98.5196 23.3158C97.7676 23.3158 97.1276 23.1531 96.5996 22.8278C96.077 22.5024 95.6503 22.0598 95.3196 21.4998C94.9943 20.9344 94.757 20.2864 94.6076 19.5558C94.4583 18.8251 94.3836 18.0571 94.3836 17.2518C94.3836 16.4464 94.4583 15.6784 94.6076 14.9478C94.757 14.2118 94.9943 13.5584 95.3196 12.9878C95.6503 12.4171 96.077 11.9691 96.5996 11.6438C97.1276 11.3131 97.7676 11.1478 98.5196 11.1478C99.2716 11.1478 99.909 11.3131 100.432 11.6438C100.96 11.9691 101.386 12.4171 101.712 12.9878C102.042 13.5584 102.282 14.2118 102.432 14.9478C102.581 15.6784 102.656 16.4464 102.656 17.2518C102.656 18.0571 102.581 18.8251 102.432 19.5558C102.282 20.2864 102.042 20.9344 101.712 21.4998C101.386 22.0598 100.96 22.5024 100.432 22.8278C99.909 23.1531 99.2716 23.3158 98.5196 23.3158ZM98.5196 21.3878C98.877 21.3878 99.1756 21.2518 99.4156 20.9798C99.661 20.7024 99.845 20.2598 99.9676 19.6518C100.09 19.0438 100.152 18.2438 100.152 17.2518C100.152 16.2544 100.09 15.4544 99.9676 14.8518C99.845 14.2438 99.661 13.8011 99.4156 13.5238C99.1756 13.2464 98.877 13.1078 98.5196 13.1078C98.1676 13.1078 97.869 13.2464 97.6236 13.5238C97.3783 13.8011 97.1943 14.2438 97.0716 14.8518C96.949 15.4544 96.8876 16.2544 96.8876 17.2518C96.8876 18.2491 96.949 19.0518 97.0716 19.6598C97.1943 20.2624 97.3783 20.7024 97.6236 20.9798C97.869 21.2518 98.1676 21.3878 98.5196 21.3878ZM108.066 23.3158C107.314 23.3158 106.674 23.1531 106.146 22.8278C105.624 22.5024 105.197 22.0598 104.866 21.4998C104.541 20.9344 104.304 20.2864 104.154 19.5558C104.005 18.8251 103.93 18.0571 103.93 17.2518C103.93 16.4464 104.005 15.6784 104.154 14.9478C104.304 14.2118 104.541 13.5584 104.866 12.9878C105.197 12.4171 105.624 11.9691 106.146 11.6438C106.674 11.3131 107.314 11.1478 108.066 11.1478C108.818 11.1478 109.456 11.3131 109.978 11.6438C110.506 11.9691 110.933 12.4171 111.258 12.9878C111.589 13.5584 111.829 14.2118 111.978 14.9478C112.128 15.6784 112.202 16.4464 112.202 17.2518C112.202 18.0571 112.128 18.8251 111.978 19.5558C111.829 20.2864 111.589 20.9344 111.258 21.4998C110.933 22.0598 110.506 22.5024 109.978 22.8278C109.456 23.1531 108.818 23.3158 108.066 23.3158ZM108.066 21.3878C108.424 21.3878 108.722 21.2518 108.962 20.9798C109.208 20.7024 109.392 20.2598 109.514 19.6518C109.637 19.0438 109.698 18.2438 109.698 17.2518C109.698 16.2544 109.637 15.4544 109.514 14.8518C109.392 14.2438 109.208 13.8011 108.962 13.5238C108.722 13.2464 108.424 13.1078 108.066 13.1078C107.714 13.1078 107.416 13.2464 107.17 13.5238C106.925 13.8011 106.741 14.2438 106.618 14.8518C106.496 15.4544 106.434 16.2544 106.434 17.2518C106.434 18.2491 106.496 19.0518 106.618 19.6598C106.741 20.2624 106.925 20.7024 107.17 20.9798C107.416 21.2518 107.714 21.3878 108.066 21.3878ZM122.172 23.3078C121.255 23.3078 120.447 23.1184 119.748 22.7398C119.05 22.3611 118.503 21.8411 118.108 21.1798C117.719 20.5131 117.524 19.7451 117.524 18.8758C117.524 18.0118 117.719 17.2491 118.108 16.5878C118.503 15.9211 119.05 15.4038 119.748 15.0358C120.447 14.6624 121.255 14.4758 122.172 14.4758C123.09 14.4758 123.898 14.6624 124.596 15.0358C125.295 15.4038 125.839 15.9211 126.228 16.5878C126.623 17.2491 126.82 18.0118 126.82 18.8758C126.82 19.7451 126.623 20.5131 126.228 21.1798C125.839 21.8411 125.295 22.3611 124.596 22.7398C123.898 23.1184 123.09 23.3078 122.172 23.3078ZM122.172 21.3398C122.604 21.3398 122.98 21.2384 123.3 21.0358C123.62 20.8331 123.868 20.5478 124.044 20.1798C124.22 19.8064 124.308 19.3718 124.308 18.8758C124.308 18.3798 124.22 17.9504 124.044 17.5878C123.868 17.2198 123.62 16.9371 123.3 16.7398C122.98 16.5424 122.604 16.4438 122.172 16.4438C121.746 16.4438 121.37 16.5424 121.044 16.7398C120.724 16.9371 120.476 17.2198 120.3 17.5878C120.124 17.9504 120.036 18.3798 120.036 18.8758C120.036 19.3718 120.124 19.8064 120.3 20.1798C120.476 20.5478 120.724 20.8331 121.044 21.0358C121.37 21.2384 121.746 21.3398 122.172 21.3398ZM134.353 23.1238V19.5158C134.353 19.3131 134.353 19.1291 134.353 18.9638C134.353 18.7984 134.353 18.6491 134.353 18.5158C134.353 18.1638 134.308 17.8438 134.217 17.5558C134.127 17.2624 133.964 17.0278 133.729 16.8518C133.495 16.6758 133.156 16.5878 132.713 16.5878C132.329 16.5878 131.996 16.6758 131.713 16.8518C131.436 17.0278 131.223 17.2731 131.073 17.5878C130.924 17.9024 130.849 18.2651 130.849 18.6758L130.161 18.1798C130.161 17.4438 130.321 16.7984 130.641 16.2438C130.961 15.6891 131.393 15.2544 131.937 14.9398C132.487 14.6251 133.095 14.4678 133.761 14.4678C134.46 14.4678 135.033 14.6091 135.481 14.8918C135.935 15.1691 136.271 15.5584 136.489 16.0598C136.713 16.5558 136.825 17.1371 136.825 17.8038C136.825 18.0758 136.825 18.3798 136.825 18.7158C136.825 19.0518 136.825 19.3958 136.825 19.7478V23.1238H134.353ZM128.369 23.1238V14.6278H130.849V23.1238H128.369ZM141.25 10.6198V23.1238H138.802V10.6198H141.25ZM143.133 23.1238V14.6278H145.589V23.1238H143.133ZM144.357 13.2438C143.973 13.2438 143.637 13.1424 143.349 12.9398C143.066 12.7371 142.925 12.4518 142.925 12.0838C142.925 11.7104 143.066 11.4224 143.349 11.2198C143.637 11.0171 143.973 10.9158 144.357 10.9158C144.746 10.9158 145.082 11.0171 145.365 11.2198C145.653 11.4224 145.797 11.7104 145.797 12.0838C145.797 12.4571 145.653 12.7451 145.365 12.9478C145.082 13.1451 144.746 13.2438 144.357 13.2438ZM153.4 23.1238V19.5158C153.4 19.3131 153.4 19.1291 153.4 18.9638C153.4 18.7984 153.4 18.6491 153.4 18.5158C153.4 18.1638 153.355 17.8438 153.264 17.5558C153.174 17.2624 153.011 17.0278 152.776 16.8518C152.542 16.6758 152.203 16.5878 151.76 16.5878C151.376 16.5878 151.043 16.6758 150.76 16.8518C150.483 17.0278 150.27 17.2731 150.12 17.5878C149.971 17.9024 149.896 18.2651 149.896 18.6758L149.208 18.1798C149.208 17.4438 149.368 16.7984 149.688 16.2438C150.008 15.6891 150.44 15.2544 150.984 14.9398C151.534 14.6251 152.142 14.4678 152.808 14.4678C153.507 14.4678 154.08 14.6091 154.528 14.8918C154.982 15.1691 155.318 15.5584 155.536 16.0598C155.76 16.5558 155.872 17.1371 155.872 17.8038C155.872 18.0758 155.872 18.3798 155.872 18.7158C155.872 19.0518 155.872 19.3958 155.872 19.7478V23.1238H153.4ZM147.416 23.1238V14.6278H149.896V23.1238H147.416ZM158.681 19.6198V17.9798H164.313L164.073 18.3958C164.073 18.3531 164.073 18.3131 164.073 18.2758C164.073 18.2331 164.073 18.1931 164.073 18.1558C164.073 17.8518 164.001 17.5611 163.857 17.2838C163.713 17.0011 163.489 16.7718 163.185 16.5958C162.886 16.4144 162.502 16.3238 162.033 16.3238C161.563 16.3238 161.158 16.4251 160.817 16.6278C160.481 16.8251 160.222 17.1104 160.041 17.4838C159.865 17.8571 159.777 18.3078 159.777 18.8358C159.777 19.3798 159.862 19.8464 160.033 20.2358C160.209 20.6198 160.467 20.9158 160.809 21.1238C161.155 21.3318 161.585 21.4358 162.097 21.4358C162.427 21.4358 162.713 21.4064 162.953 21.3478C163.193 21.2838 163.387 21.2038 163.537 21.1078C163.691 21.0118 163.809 20.9051 163.889 20.7878C163.969 20.6704 164.017 20.5558 164.033 20.4438H166.481C166.449 20.8011 166.326 21.1531 166.113 21.4998C165.899 21.8411 165.603 22.1504 165.225 22.4278C164.846 22.6998 164.385 22.9158 163.841 23.0758C163.302 23.2358 162.686 23.3158 161.993 23.3158C161.054 23.3158 160.235 23.1291 159.537 22.7558C158.838 22.3771 158.297 21.8571 157.913 21.1958C157.529 20.5291 157.337 19.7611 157.337 18.8918C157.337 18.0118 157.531 17.2411 157.921 16.5798C158.315 15.9131 158.862 15.3958 159.561 15.0278C160.265 14.6544 161.078 14.4678 162.001 14.4678C162.945 14.4678 163.761 14.6571 164.449 15.0358C165.137 15.4091 165.667 15.9344 166.041 16.6118C166.414 17.2838 166.601 18.0678 166.601 18.9638C166.601 19.0971 166.598 19.2251 166.593 19.3478C166.587 19.4704 166.579 19.5611 166.569 19.6198H158.681Z" fill="url(#paint1_linear_85_830)"/>
<circle cx="14.7539" cy="17.6238" r="3.76074" fill="#3FD88F"/>
<circle opacity="0.3" cx="14.7539" cy="17.6238" r="6.24609" fill="#3FD88F"/>
<path d="M36.1864 23.2905H36.5334C37.348 23.2905 37.9962 22.9194 38.5777 22.4009C40.0553 21.0827 36.5816 19.7489 35.3959 19.7489M33.9792 12.7144C34.1402 12.6818 34.3067 12.6655 34.4786 12.6655C35.7677 12.6655 36.8125 13.6168 36.8125 14.7905C36.8125 15.9642 35.7677 16.9155 34.4786 16.9155C34.3067 16.9155 34.1402 16.8992 33.9792 16.8667M26.1741 20.5358C25.3389 20.9835 23.1495 21.8972 24.4833 23.0405C25.1349 23.5994 25.8603 23.9989 26.7726 23.9989H31.9774C32.8898 23.9989 33.6151 23.5994 34.2668 23.0405C35.6006 21.8972 33.4111 20.9835 32.576 20.5358C30.6174 19.4868 28.1326 19.4868 26.1741 20.5358ZM32.2084 14.4364C32.2084 15.1878 31.9099 15.9085 31.3785 16.4398C30.8471 16.9712 30.1265 17.2697 29.375 17.2697C28.6236 17.2697 27.9029 16.9712 27.3716 16.4398C26.8402 15.9085 26.5417 15.1878 26.5417 14.4364C26.5417 13.6849 26.8402 12.9642 27.3716 12.4329C27.9029 11.9015 28.6236 11.603 29.375 11.603C30.1265 11.603 30.8471 11.9015 31.3785 12.4329C31.9099 12.9642 32.2084 13.6849 32.2084 14.4364Z" stroke="#3FD88F" stroke-width="1.0625" stroke-linecap="round" stroke-linejoin="round"/>
<defs>
<linearGradient id="paint0_linear_85_830" x1="0.292969" y1="4.46563" x2="174.217" y2="41.5368" gradientUnits="userSpaceOnUse">
<stop stop-color="#3FD88F"/>
<stop offset="1" stop-color="#21724B"/>
</linearGradient>
<linearGradient id="paint1_linear_85_830" x1="52.811" y1="9.12378" x2="166.843" y2="38.7839" gradientUnits="userSpaceOnUse">
<stop stop-color="#3FD88F"/>
<stop offset="1" stop-color="#21724B"/>
</linearGradient>
</defs>
</svg>
